<?xml version="1.0" standalone="no"?><!DOCTYPE svg PUBLIC "-//W3C//DTD SVG 1.1//EN" "http://www.w3.org/Graphics/SVG/1.1/DTD/svg11.dtd"><svg t="1567388593686" class="icon" viewBox="0 0 1024 1024" version="1.1" xmlns="http://www.w3.org/2000/svg" p-id="2280" xmlns:xlink="http://www.w3.org/1999/xlink" width="250" height="250"><defs><style type="text/css"></style></defs><path d="M959.008 442.016c0.64 1.696 0.992 3.68 0.992 5.984v426.112C960 921.472 922.4 960 876.224 960h-236.416a31.456 31.456 0 0 1-3.84-0.224c-14.496-1.696-27.968-12.224-27.968-24.928V704c0-13.984-6.528-32-22.336-32h-115.328c-15.968 0-22.336 17.888-22.336 32v230.848c0 13.888-16.096 25.152-32 25.152H147.776C101.44 960 64 921.6 64 874.112V448a14.08 14.08 0 0 1 2.944-9.312c1.728-4.128 4.576-8.224 8.992-12.16l412.16-354.176c6.08-6.08 13.696-9.088 21.312-8.192 7.328-0.64 14.656 0.832 20.512 3.776l418.144 354.176c6.976 6.944 10.112 13.6 10.944 19.904zM896 461.472L511.616 135.872 128 460.832V864c0 15.936 16.64 32 32 32h224v-212.352C384 641.856 422.464 608 470.336 608h115.328C633.344 608 672 641.92 672 683.648V896h192c15.2 0 32-16.224 32-32V461.44z" p-id="2281"></path></svg>