<?xml version="1.0" standalone="no"?><!DOCTYPE svg PUBLIC "-//W3C//DTD SVG 1.1//EN" "http://www.w3.org/Graphics/SVG/1.1/DTD/svg11.dtd"><svg t="1567131144357" class="icon" viewBox="0 0 1024 1024" version="1.1" xmlns="http://www.w3.org/2000/svg" p-id="2467" xmlns:xlink="http://www.w3.org/1999/xlink" width="250" height="250"><defs><style type="text/css"></style></defs><path d="M512 972.8c254.4896 0 460.8-206.3104 460.8-460.8S766.4896 51.2 512 51.2 51.2 257.5104 51.2 512s206.3104 460.8 460.8 460.8z m0 51.2C229.2224 1024 0 794.7776 0 512S229.2224 0 512 0s512 229.2224 512 512-229.2224 512-512 512zM473.6 243.2a51.2 51.2 0 1 1 102.4 0v358.4a51.2 51.2 0 1 1-102.4 0v-358.4z m51.2 601.6a64 64 0 1 1 0-128 64 64 0 0 1 0 128z" fill="#bfbfbf" p-id="2468"></path></svg>