<?xml version="1.0" standalone="no"?><!DOCTYPE svg PUBLIC "-//W3C//DTD SVG 1.1//EN" "http://www.w3.org/Graphics/SVG/1.1/DTD/svg11.dtd"><svg t="1568170896633" class="icon" viewBox="0 0 1024 1024" version="1.1" xmlns="http://www.w3.org/2000/svg" p-id="3384" xmlns:xlink="http://www.w3.org/1999/xlink" width="500" height="500"><defs><style type="text/css"></style></defs><path d="M876.874663 145.958256l-81.08269 0L795.791973 85.145216c0-11.20418-9.067516-20.270672-20.272719-20.270672-11.205203 0-20.270672 9.066493-20.270672 20.270672l0 60.813041L268.748349 145.958256 268.748349 85.145216c0-11.20418-9.066493-20.270672-20.270672-20.270672s-20.271696 9.066493-20.271696 20.270672l0 60.813041-81.083713 0c-44.777833 0-81.08269 36.305881-81.08269 81.103156l0 648.648217c0 44.778856 36.305881 81.083713 81.08269 81.083713L876.874663 956.793342c44.778856 0 81.083713-36.305881 81.083713-81.083713L957.958376 227.061412C957.9594 182.263114 921.653519 145.958256 876.874663 145.958256M917.416008 875.709629c0 22.408359-18.151405 40.541345-40.541345 40.541345L147.122267 916.250974c-22.387893 0-40.541345-18.132986-40.541345-40.541345L106.580922 389.208373l810.835086 0L917.416008 875.709629zM917.416008 348.667028 106.581945 348.667028 106.581945 227.061412c0-22.388916 18.152429-40.561811 40.541345-40.561811l81.083713 0 0 60.812017c0 11.20418 9.066493 20.270672 20.271696 20.270672s20.270672-9.066493 20.270672-20.270672l0-60.812017 486.501256 0 0 60.812017c0 11.20418 9.064446 20.270672 20.270672 20.270672 11.20418 0 20.272719-9.066493 20.272719-20.270672l0-60.812017 81.08269 0c22.38994 0 40.541345 18.172895 40.541345 40.561811L917.418055 348.667028zM654.747633 814.382888l37.907355 0L692.654988 488.702388l-28.980032 0c-2.099824 12.233626-5.957689 22.329565-11.601222 30.327726-5.659907 7.937786-12.549827 14.2127-20.745487 18.805298-8.17417 4.592598-17.301038 7.740288-27.39493 9.402137-10.135848 1.701758-20.549012 2.534729-31.239492 2.534729l0 31.236422 82.055854 0L654.74968 814.382888zM461.598588 768.654404c-6.255471 5.385661-13.540388 9.502421-21.853727 12.391215-8.314363 2.930749-17.10354 4.375657-26.308179 4.375657-21.716604 0-38.20616-6.671956-49.5096-19.974937-11.282974-13.302981-17.241686-30.563086-17.835204-51.66673L308.182476 713.779609c-0.277316 16.826224 2.018983 31.830963 6.928806 45.01524 4.909823 13.144368 11.957333 24.269753 21.181415 33.296337 9.185196 9.027607 20.349467 15.838733 33.453926 20.431332 13.065574 4.590552 27.635407 6.887874 43.690058 6.887874 14.866592 0 28.921703-2.059915 42.145889-6.198166 13.222139-4.137227 24.743544-10.333346 34.56319-18.606777 9.818623-8.275477 17.61724-18.6078 23.397896-30.981618 5.820566-12.431124 8.711406-26.723641 8.711406-42.956348 0-19.618826-4.671393-36.603663-14.055111-51.013861-9.363252-14.371312-23.715121-23.715121-43.036165-28.009937l0-0.913812c12.491499-5.819542 22.884197-14.410198 31.218002-25.733081 8.333806-11.322883 12.490475-24.309662 12.490475-39.037085 0-15.003715-2.452865-28.030403-7.361665-39.036062-4.910846-11.026124-11.68104-20.053732-20.271696-27.101241-8.631588-7.027044-18.825764-12.331863-30.565133-15.85613-11.758812-3.523243-24.467251-5.265934-38.126342-5.265934-15.756869 0-29.65439 2.573615-41.690518 7.79964-12.036128 5.206582-22.092158 12.392238-30.109762 21.577434-8.016581 9.185196-14.193257 20.231787-18.508539 33.099862-4.315282 12.848633-6.770194 27.079752-7.364735 42.718941l37.909401 0c0-9.501398 1.167592-18.529005 3.581572-27.120684 2.376117-8.571213 6.018064-16.074094 10.927887-22.488177 4.889357-6.453992 11.125385-11.579733 18.726503-15.400758 7.562233-3.840468 16.410762-5.740748 26.526143-5.740748 16.053628 0 29.436426 4.355191 40.146349 13.08604 10.689457 8.728802 16.033162 21.813818 16.033162 39.254026 0 8.591679-1.622964 16.252149-4.889357 22.961968-3.285836 6.771217-7.661494 12.354376-13.164834 16.787338-5.502317 4.433986-11.895935 7.79964-19.161409 10.134825-7.305383 2.25639-14.965853 3.445472-22.983457 3.445472l-12.491499 0c-1.188058 0-2.533706-0.159636-3.999081-0.496304l0 33.078373c7.127328-0.910743 14.709003-1.385557 22.725584-1.385557 9.521864 0 18.371416 1.306762 26.546609 3.901867 8.175193 2.631944 15.222703 6.591115 21.181415 11.975752 5.958712 5.364171 10.709923 11.917424 14.273075 19.735483 3.563152 7.798617 5.345752 16.767895 5.345752 26.862811 0 9.800203-1.861394 18.608823-5.562692 26.40744C472.823234 756.697071 467.854059 763.290233 461.598588 768.654404" p-id="3385"></path></svg>