<?xml version="1.0" standalone="no"?><!DOCTYPE svg PUBLIC "-//W3C//DTD SVG 1.1//EN" "http://www.w3.org/Graphics/SVG/1.1/DTD/svg11.dtd"><svg t="1568170868116" class="icon" viewBox="0 0 1024 1024" version="1.1" xmlns="http://www.w3.org/2000/svg" p-id="3173" xmlns:xlink="http://www.w3.org/1999/xlink" width="500" height="500"><defs><style type="text/css"></style></defs><path d="M832 992h-640A96.128 96.128 0 0 1 96 896V224A96.128 96.128 0 0 1 192 128h96a32 32 0 0 1 0 64H192a32 32 0 0 0-32 32V896c0 17.664 14.336 32 32 32h640a32 32 0 0 0 32-32V224a32 32 0 0 0-32-32h-96a32 32 0 1 1 0-64h96a96.128 96.128 0 0 1 96 96V896a96.128 96.128 0 0 1-96 96z" p-id="3174"></path><path d="M768 448H256A32 32 0 1 1 256 384h512a32 32 0 1 1 0 64z m0 192H256a32 32 0 1 1 0-64h512a32 32 0 1 1 0 64z m-192 192H256A32 32 0 1 1 256 768h320a32 32 0 1 1 0 64z m96-544h-320A96.128 96.128 0 0 1 256 192V128A96.128 96.128 0 0 1 352 32h320A96.128 96.128 0 0 1 768 128v64a96.128 96.128 0 0 1-96 96z m-320-192A32 32 0 0 0 320 128v64c0 17.664 14.336 32 32 32h320a32 32 0 0 0 32-32V128a32 32 0 0 0-32-32h-320z" p-id="3175"></path></svg>