<?xml version="1.0" standalone="no"?><!DOCTYPE svg PUBLIC "-//W3C//DTD SVG 1.1//EN" "http://www.w3.org/Graphics/SVG/1.1/DTD/svg11.dtd"><svg t="1568171833210" class="icon" viewBox="0 0 1024 1024" version="1.1" xmlns="http://www.w3.org/2000/svg" p-id="4126" xmlns:xlink="http://www.w3.org/1999/xlink" width="500" height="500"><defs><style type="text/css"></style></defs><path d="M486.4 460.8h-179.2a25.6 25.6 0 0 1 0-51.2h168.6016l-109.9008-109.9008a25.6 25.6 0 0 1 36.1984-36.1984L512 373.4016l109.9008-109.9008a25.6 25.6 0 0 1 36.1984 36.1984L548.1984 409.6H716.8a25.6 25.6 0 0 1 0 51.2h-179.2v102.4h179.2a25.6 25.6 0 0 1 0 51.2h-179.2v179.2a25.6 25.6 0 0 1-51.2 0v-179.2h-179.2a25.6 25.6 0 0 1 0-51.2h179.2v-102.4z m25.6 563.2C229.2224 1024 0 794.7776 0 512S229.2224 0 512 0s512 229.2224 512 512-229.2224 512-512 512z m0-51.2c254.4896 0 460.8-206.3104 460.8-460.8S766.4896 51.2 512 51.2 51.2 257.5104 51.2 512s206.3104 460.8 460.8 460.8z" p-id="4127"></path></svg>