<?xml version="1.0" standalone="no"?><!DOCTYPE svg PUBLIC "-//W3C//DTD SVG 1.1//EN" "http://www.w3.org/Graphics/SVG/1.1/DTD/svg11.dtd"><svg t="1566376923962" class="icon" viewBox="0 0 1024 1024" version="1.1" xmlns="http://www.w3.org/2000/svg" p-id="8185" xmlns:xlink="http://www.w3.org/1999/xlink" width="250" height="250"><defs><style type="text/css"></style></defs><path d="M225.852295 486.451098H166.578842c-12.263473 0-20.439122-8.175649-20.439121-20.439122s8.175649-20.439122 20.439121-20.439122H225.852295c12.263473 0 20.439122 8.175649 20.439122 20.439122s-8.175649 20.439122-20.439122 20.439122zM332.135729 670.403194h-163.512975c-12.263473 0-20.439122-8.175649-20.439121-20.439122s8.175649-20.439122 20.439121-20.439122h163.512975c12.263473 0 20.439122 8.175649 20.439121 20.439122s-10.219561 20.439122-20.439121 20.439122zM458.858283 856.399202H166.578842c-12.263473 0-20.439122-8.175649-20.439121-20.439122s8.175649-20.439122 20.439121-20.439122h292.279441c12.263473 0 20.439122 8.175649 20.439122 20.439122s-8.175649 20.439122-20.439122 20.439122z" fill="#020202" p-id="8186"></path><path d="M826.762475 1024H92.998004c-20.439122 0-36.790419-16.351297-36.790419-36.790419V290.235529c0-20.439122 16.351297-36.790419 36.790419-36.790419h200.303393v40.878243H97.085828V983.121756h725.588823V609.085828h40.878243v380.167665c0 18.39521-16.351297 34.746507-36.790419 34.746507z" fill="#020202" p-id="8187"></path><path d="M618.283433 468.055888c-65.40519 0-120.590818-53.141717-120.590818-118.546906 0-65.40519 53.141717-118.546906 120.590818-118.546906s120.590818 53.141717 120.590818 118.546906c0 65.40519-55.185629 118.546906-120.590818 118.546906z m0-198.259481c-42.922156 0-79.712575 34.746507-79.712575 77.668663 0 42.922156 34.746507 77.668663 79.712575 77.668663s79.712575-34.746507 79.712575-77.668663c0-42.922156-36.790419-77.668663-79.712575-77.668663z" p-id="8188"></path><path d="M618.283433 932.023952c-6.131737 0-12.263473-2.043912-16.351297-6.131736-12.263473-18.39521-333.157685-392.431138-333.157685-578.427146 0-192.127745 157.381238-347.46507 349.508982-347.46507s349.508982 155.337325 349.508982 347.46507c0 185.996008-320.894212 560.031936-335.201597 576.383233-2.043912 4.087824-8.175649 8.175649-14.307385 8.175649z m0-889.101796c-169.644711 0-308.630739 136.942116-308.630738 306.586826 0 149.205589 245.269461 453.748503 308.630738 531.417166 65.40519-77.668663 308.630739-382.211577 308.630739-531.417166 0-169.644711-138.986028-306.586826-308.630739-306.586826z" p-id="8189"></path></svg>