<?xml version="1.0" standalone="no"?><!DOCTYPE svg PUBLIC "-//W3C//DTD SVG 1.1//EN" "http://www.w3.org/Graphics/SVG/1.1/DTD/svg11.dtd"><svg t="1567411189858" class="icon" viewBox="0 0 1024 1024" version="1.1" xmlns="http://www.w3.org/2000/svg" p-id="2144" xmlns:xlink="http://www.w3.org/1999/xlink" width="250" height="250"><defs><style type="text/css"></style></defs><path d="M919.214469 485.955834l-96.238878 98.855472c-7.916297 7.822153-20.74958 7.822153-28.6669 0l-95.604428-98.855472c-11.363815-13.561877-3.771907-18.391882 4.14439-26.221198l87.541799 0c-24.155143-133.36545-138.983401-234.485499-277.263791-234.485499-106.907868 0-199.903889 60.412928-247.77006 149.448754l-47.753607-19.401886c55.667857-108.195188 167.010735-182.149527 295.522644-182.149527 166.663834 0 304.365033 124.33682 329.095273 286.588157l72.847122 0C922.986375 467.564975 927.130765 478.128565 919.214469 485.955834zM233.034451 464.932008l96.238878 98.854449c7.916297 7.826246 3.76986 18.398022-4.146437 26.219151l-83.330894 0c33.486672 120.270201 142.202723 208.4311 271.330662 208.4311 98.269118 0 184.715979-51.091632 235.234559-128.485303l48.239677 19.600407c-58.757219 96.490611-163.569356 160.992671-283.474236 160.992671-157.599388 0-289.076838-111.251803-323.834456-260.538875l-76.385714 0c-7.916297-7.820106-15.505136-12.656251-4.142343-26.219151l95.602382-98.854449C212.282824 457.107809 225.120201 457.107809 233.034451 464.932008z" p-id="2145"></path></svg>