<?xml version="1.0" standalone="no"?><!DOCTYPE svg PUBLIC "-//W3C//DTD SVG 1.1//EN" "http://www.w3.org/Graphics/SVG/1.1/DTD/svg11.dtd"><svg t="1567389237969" class="icon" viewBox="0 0 1024 1024" version="1.1" xmlns="http://www.w3.org/2000/svg" p-id="2159" xmlns:xlink="http://www.w3.org/1999/xlink" width="250" height="250"><defs><style type="text/css"></style></defs><path d="M625.344 410.112A191.04 191.04 0 0 0 704 256c0-105.856-86.144-192-192-192S320 150.144 320 256c0 63.36 31.168 119.168 78.656 154.112-120.192 45.952-206.144 161.664-206.144 297.792v219.968a32 32 0 0 0 32 32h575.104a32 32 0 0 0 32-32v-219.968c-0.064-136.128-86.016-251.84-206.272-297.792zM512 128c70.592 0 128 57.408 128 128s-57.408 128-128 128-128-57.408-128-128 57.408-128 128-128z m255.552 767.872H256.448v-187.968A255.872 255.872 0 0 1 512 452.352a255.872 255.872 0 0 1 255.552 255.552v187.968z" p-id="2160"></path><path d="M299.648 434.304a32 32 0 0 0-7.936-63.04 99.2 99.2 0 0 1 0-198.144 32 32 0 0 0 0-64 163.008 163.008 0 1 0-86.08 301.504 319.744 319.744 0 0 0-140.736 264.576v189.312a32 32 0 0 0 64 0V675.2a256 256 0 0 1 170.752-240.896zM819.072 410.688a163.008 163.008 0 0 0-86.08-301.504 32 32 0 0 0 0 64 99.2 99.2 0 0 1 0 198.144 32 32 0 0 0-8 62.976 256 256 0 0 1 170.816 240.96v189.312a32 32 0 0 0 64 0v-189.312c0-107.648-54.208-206.08-140.736-264.576z" p-id="2161"></path></svg>