<?xml version="1.0" standalone="no"?><!DOCTYPE svg PUBLIC "-//W3C//DTD SVG 1.1//EN" "http://www.w3.org/Graphics/SVG/1.1/DTD/svg11.dtd"><svg t="1568170843155" class="icon" viewBox="0 0 1024 1024" version="1.1" xmlns="http://www.w3.org/2000/svg" p-id="2435" xmlns:xlink="http://www.w3.org/1999/xlink" width="500" height="500"><defs><style type="text/css"></style></defs><path d="M636.664425 1024H248.619583C172.15257 1024 109.935 961.79243 109.935 885.315417V267.169564c0-76.477013 62.21757-138.684583 138.684583-138.684583h388.044842c76.467013 0 138.684583 62.20757 138.684582 138.684583v618.145853c0 76.477013-62.21757 138.684583-138.684582 138.684583zM248.619583 183.962814a83.306746 83.306746 0 0 0-83.20675 83.20675v618.145853a83.296746 83.296746 0 0 0 83.20675 83.20675h388.044842A83.296746 83.296746 0 0 0 719.911173 885.315417V267.169564a83.306746 83.306746 0 0 0-83.20675-83.20675z" fill="" p-id="2436"></path><path d="M600.455839 429.183235H292.747859a27.738916 27.738916 0 1 1 0-55.467833h307.70798a27.738916 27.738916 0 1 1 0 55.467833zM600.455839 588.757002H292.747859a27.738916 27.738916 0 1 1 0-55.477833h307.70798a27.738916 27.738916 0 0 1 0 55.477833z" fill="" p-id="2437"></path><path d="M886.294673 707.33237a27.728917 27.728917 0 0 1-27.738916-27.738917v-444.982617c0-98.776142-80.356861-179.133003-179.133003-179.133003h-292.388578a27.738916 27.738916 0 0 1 0-55.477833h292.388578C808.787701 0.039998 914.03359 105.285887 914.03359 234.650834v444.982618a27.728917 27.728917 0 0 1-27.738917 27.698918zM600.455839 748.340768H292.747859a27.738916 27.738916 0 1 1 0-55.477833h307.70798a27.738916 27.738916 0 0 1 0 55.477833z" fill="" p-id="2438"></path></svg>